<svg xmlns="http://www.w3.org/2000/svg" viewBox="0 0 32 32">
  <defs>
    <linearGradient id="grad" x1="0" y1="0" x2="1" y2="1">
      <stop offset="0%" stop-color="#3b82f6"/>
      <stop offset="100%" stop-color="#22d3ee"/>
    </linearGradient>
  </defs>
  <rect width="32" height="32" rx="9" fill="url(#grad)"/>
  <!-- Elegant teardrop -->
  <path d="M 16 5.5 C 14 8, 12.6 9.8, 12.6 11.7 C 12.6 13.6, 14.1 14.9, 16 14.9 C 17.9 14.9, 19.4 13.6, 19.4 11.7 C 19.4 9.8, 18 8, 16 5.5 Z" fill="white"/>
  <!-- Refined W with smooth bezier curves -->
  <path d="M 5.5 17 C 5.5 17, 7.5 22.5, 10 26.5 C 11 28, 12 27.8, 12.6 26.5 C 13.5 24.5, 14.8 22, 16 19.5 C 17.2 22, 18.5 24.5, 19.4 26.5 C 20 27.8, 21 28, 22 26.5 C 24.5 22.5, 26.5 17, 26.5 17" stroke="white" stroke-width="2.2" stroke-linecap="round" stroke-linejoin="round" fill="none"/>
</svg>
